<svg width="169" height="30" viewBox="0 0 169 30" fill="none" xmlns="http://www.w3.org/2000/svg">
<path d="M61.156 10.544C62.584 10.544 63.802 10.838 64.81 11.426C65.818 12.014 66.322 12.638 66.322 13.298C66.322 13.478 66.28 13.634 66.196 13.766C66.124 13.886 66.028 13.976 65.908 14.036C65.8 14.084 65.68 14.108 65.548 14.108C65.332 14.108 65.008 14 64.576 13.784C64.144 13.556 63.664 13.334 63.136 13.118C62.608 12.89 62.122 12.776 61.678 12.776C60.97 12.776 60.616 13.064 60.616 13.64C60.616 13.82 60.67 13.994 60.778 14.162C60.898 14.318 61.084 14.486 61.336 14.666C61.588 14.834 61.834 14.984 62.074 15.116C62.314 15.248 62.644 15.428 63.064 15.656C63.484 15.872 63.838 16.064 64.126 16.232C65.05 16.76 65.698 17.264 66.07 17.744C66.442 18.224 66.628 18.776 66.628 19.4C66.628 21.884 64.954 23.126 61.606 23.126C60.946 23.126 60.304 23.06 59.68 22.928C59.068 22.796 58.528 22.622 58.06 22.406C57.604 22.19 57.196 21.95 56.836 21.686C56.488 21.422 56.224 21.152 56.044 20.876C55.864 20.6 55.774 20.342 55.774 20.102C55.774 19.838 55.858 19.616 56.026 19.436C56.206 19.244 56.464 19.148 56.8 19.148C57.052 19.148 57.658 19.31 58.618 19.634C59.578 19.946 60.352 20.102 60.94 20.102C61.48 20.102 61.75 19.916 61.75 19.544C61.75 19.436 61.726 19.34 61.678 19.256C61.642 19.16 61.57 19.07 61.462 18.986C61.366 18.89 61.252 18.806 61.12 18.734C61 18.65 60.826 18.548 60.598 18.428C60.382 18.308 60.16 18.188 59.932 18.068C59.716 17.948 59.428 17.792 59.068 17.6C58.708 17.408 58.36 17.216 58.024 17.024C57.58 16.772 57.196 16.46 56.872 16.088C56.56 15.716 56.332 15.35 56.188 14.99C56.044 14.618 55.972 14.276 55.972 13.964C55.972 12.956 56.422 12.134 57.322 11.498C58.222 10.862 59.5 10.544 61.156 10.544ZM79 18.248C79 17.576 78.73 17.24 78.19 17.24C77.95 17.24 77.77 17.378 77.65 17.654C77.53 17.93 77.47 18.278 77.47 18.698C77.47 19.334 77.458 19.862 77.434 20.282C77.422 20.702 77.386 21.08 77.326 21.416C77.266 21.752 77.194 22.016 77.11 22.208C77.026 22.4 76.912 22.562 76.768 22.694C76.624 22.814 76.462 22.898 76.282 22.946C76.102 22.982 75.874 23 75.598 23C75.178 23 74.836 22.94 74.572 22.82C74.32 22.7 74.14 22.532 74.032 22.316C73.924 22.1 73.87 21.83 73.87 21.506V18.248C73.87 17.576 73.6 17.24 73.06 17.24C72.844 17.24 72.664 17.366 72.52 17.618C72.388 17.858 72.322 18.176 72.322 18.572V21.074C72.322 21.794 72.172 22.298 71.872 22.586C71.572 22.862 71.044 23 70.288 23C69.58 23 69.094 22.838 68.83 22.514C68.578 22.178 68.452 21.632 68.452 20.876V16.448C68.452 15.836 68.614 15.344 68.938 14.972C69.274 14.6 69.718 14.414 70.27 14.414C71.254 14.414 71.878 14.732 72.142 15.368C72.598 15.032 73.042 14.798 73.474 14.666C73.918 14.534 74.434 14.468 75.022 14.468C75.91 14.468 76.552 14.852 76.948 15.62C77.008 15.572 77.068 15.524 77.128 15.476C78.052 14.804 79.186 14.468 80.53 14.468C81.382 14.468 81.994 14.792 82.366 15.44C82.738 16.088 82.924 17.174 82.924 18.698C82.924 19.334 82.912 19.862 82.888 20.282C82.876 20.702 82.84 21.08 82.78 21.416C82.72 21.752 82.642 22.016 82.546 22.208C82.462 22.4 82.336 22.562 82.168 22.694C82.012 22.814 81.832 22.898 81.628 22.946C81.436 22.982 81.19 23 80.89 23C80.434 23 80.062 22.94 79.774 22.82C79.498 22.7 79.3 22.532 79.18 22.316C79.06 22.1 79 21.83 79 21.506V18.248ZM84.567 11.912C84.567 11.516 84.735 11.192 85.071 10.94C85.419 10.676 85.905 10.544 86.529 10.544C87.837 10.544 88.491 11 88.491 11.912C88.491 12.416 88.323 12.77 87.987 12.974C87.663 13.178 87.177 13.28 86.529 13.28C85.965 13.28 85.497 13.172 85.125 12.956C84.753 12.74 84.567 12.392 84.567 11.912ZM88.473 21.074C88.473 21.794 88.323 22.298 88.023 22.586C87.723 22.862 87.195 23 86.439 23C85.731 23 85.245 22.838 84.981 22.514C84.729 22.178 84.603 21.632 84.603 20.876V16.448C84.603 15.836 84.765 15.344 85.089 14.972C85.425 14.6 85.869 14.414 86.421 14.414C87.069 14.414 87.573 14.558 87.933 14.846C88.293 15.122 88.473 15.638 88.473 16.394V21.074ZM94.0653 20.282C94.0653 21.254 93.9033 21.95 93.5793 22.37C93.2553 22.79 92.7573 23 92.0853 23C91.4133 23 90.9213 22.814 90.6093 22.442C90.2973 22.058 90.1413 21.386 90.1413 20.426L90.1053 12.83C90.1053 12.518 90.1353 12.242 90.1953 12.002C90.2673 11.762 90.3573 11.558 90.4653 11.39C90.5853 11.222 90.7293 11.084 90.8973 10.976C91.0653 10.868 91.2453 10.79 91.4373 10.742C91.6413 10.694 91.8573 10.67 92.0853 10.67C92.7453 10.67 93.2373 10.802 93.5613 11.066C93.8973 11.33 94.0653 11.864 94.0653 12.668V20.282ZM100.663 23.108C99.1988 23.108 97.9868 22.73 97.0268 21.974C96.0788 21.218 95.6048 20.186 95.6048 18.878C95.6048 17.462 96.0728 16.346 97.0088 15.53C97.9568 14.702 99.1748 14.288 100.663 14.288C102.067 14.288 103.093 14.54 103.741 15.044C104.401 15.536 104.731 16.214 104.731 17.078C104.731 17.246 104.707 17.408 104.659 17.564C104.623 17.72 104.557 17.876 104.461 18.032C104.377 18.176 104.257 18.314 104.101 18.446C103.957 18.566 103.789 18.68 103.597 18.788C103.405 18.884 103.177 18.962 102.913 19.022C102.649 19.07 102.367 19.094 102.067 19.094L99.5288 19.112C99.6488 19.496 99.8648 19.802 100.177 20.03C100.489 20.246 100.885 20.354 101.365 20.354C101.881 20.354 102.409 20.288 102.949 20.156C103.177 20.096 103.423 20 103.687 19.868C103.963 19.736 104.161 19.67 104.281 19.67C104.485 19.67 104.641 19.73 104.749 19.85C104.869 19.97 104.929 20.12 104.929 20.3C104.929 20.516 104.833 20.78 104.641 21.092C104.449 21.392 104.179 21.698 103.831 22.01C103.495 22.31 103.045 22.568 102.481 22.784C101.917 23 101.311 23.108 100.663 23.108ZM99.4388 17.96C100.267 17.948 100.717 17.942 100.789 17.942C100.969 17.942 101.101 17.834 101.185 17.618C101.245 17.462 101.275 17.246 101.275 16.97C101.275 16.214 101.047 15.836 100.591 15.836C100.423 15.836 100.255 15.926 100.087 16.106C99.9308 16.286 99.7928 16.544 99.6728 16.88C99.5528 17.204 99.4748 17.564 99.4388 17.96ZM111.746 10.544C113.174 10.544 114.392 10.838 115.4 11.426C116.408 12.014 116.912 12.638 116.912 13.298C116.912 13.478 116.87 13.634 116.786 13.766C116.714 13.886 116.618 13.976 116.498 14.036C116.39 14.084 116.27 14.108 116.138 14.108C115.922 14.108 115.598 14 115.166 13.784C114.734 13.556 114.254 13.334 113.726 13.118C113.198 12.89 112.712 12.776 112.268 12.776C111.56 12.776 111.206 13.064 111.206 13.64C111.206 13.82 111.26 13.994 111.368 14.162C111.488 14.318 111.674 14.486 111.926 14.666C112.178 14.834 112.424 14.984 112.664 15.116C112.904 15.248 113.234 15.428 113.654 15.656C114.074 15.872 114.428 16.064 114.716 16.232C115.64 16.76 116.288 17.264 116.66 17.744C117.032 18.224 117.218 18.776 117.218 19.4C117.218 21.884 115.544 23.126 112.196 23.126C111.536 23.126 110.894 23.06 110.27 22.928C109.658 22.796 109.118 22.622 108.65 22.406C108.194 22.19 107.786 21.95 107.426 21.686C107.078 21.422 106.814 21.152 106.634 20.876C106.454 20.6 106.364 20.342 106.364 20.102C106.364 19.838 106.448 19.616 106.616 19.436C106.796 19.244 107.054 19.148 107.39 19.148C107.642 19.148 108.248 19.31 109.208 19.634C110.168 19.946 110.942 20.102 111.53 20.102C112.07 20.102 112.34 19.916 112.34 19.544C112.34 19.436 112.316 19.34 112.268 19.256C112.232 19.16 112.16 19.07 112.052 18.986C111.956 18.89 111.842 18.806 111.71 18.734C111.59 18.65 111.416 18.548 111.188 18.428C110.972 18.308 110.75 18.188 110.522 18.068C110.306 17.948 110.018 17.792 109.658 17.6C109.298 17.408 108.95 17.216 108.614 17.024C108.17 16.772 107.786 16.46 107.462 16.088C107.15 15.716 106.922 15.35 106.778 14.99C106.634 14.618 106.562 14.276 106.562 13.964C106.562 12.956 107.012 12.134 107.912 11.498C108.812 10.862 110.09 10.544 111.746 10.544ZM124.068 16.268C124.068 15.992 123.912 15.854 123.6 15.854C123.372 15.854 123.168 15.98 122.988 16.232C122.808 16.484 122.67 16.802 122.574 17.186C122.478 17.558 122.43 17.948 122.43 18.356C122.43 18.956 122.61 19.442 122.97 19.814C123.342 20.186 123.84 20.372 124.464 20.372C125.076 20.372 125.604 20.3 126.048 20.156C126.228 20.108 126.444 20.018 126.696 19.886C126.96 19.754 127.146 19.688 127.254 19.688C127.422 19.688 127.56 19.718 127.668 19.778C127.776 19.838 127.848 19.91 127.884 19.994C127.932 20.078 127.956 20.168 127.956 20.264C127.956 20.432 127.896 20.636 127.776 20.876C127.668 21.116 127.494 21.368 127.254 21.632C127.014 21.896 126.732 22.142 126.408 22.37C126.096 22.586 125.706 22.766 125.238 22.91C124.77 23.054 124.278 23.126 123.762 23.126C122.274 23.126 121.05 22.73 120.09 21.938C119.13 21.134 118.65 20.036 118.65 18.644C118.65 17.756 118.866 16.982 119.298 16.322C119.742 15.65 120.348 15.146 121.116 14.81C121.884 14.462 122.766 14.288 123.762 14.288C124.71 14.288 125.49 14.402 126.102 14.63C126.726 14.846 127.17 15.14 127.434 15.512C127.698 15.884 127.83 16.328 127.83 16.844C127.83 17.072 127.782 17.306 127.686 17.546C127.602 17.786 127.464 18.026 127.272 18.266C127.092 18.506 126.822 18.704 126.462 18.86C126.102 19.004 125.682 19.076 125.202 19.076C124.986 19.076 124.806 19.064 124.662 19.04C124.53 19.016 124.386 18.968 124.23 18.896C124.086 18.812 123.978 18.68 123.906 18.5C123.834 18.32 123.798 18.092 123.798 17.816C123.798 17.576 123.84 17.288 123.924 16.952C124.02 16.604 124.068 16.376 124.068 16.268ZM135.15 18.176C135.15 17.492 134.886 17.15 134.358 17.15C134.262 17.15 134.172 17.162 134.088 17.186C134.016 17.21 133.944 17.24 133.872 17.276C133.812 17.312 133.752 17.366 133.692 17.438C133.644 17.498 133.596 17.57 133.548 17.654C133.512 17.726 133.482 17.816 133.458 17.924C133.446 18.032 133.439 18.152 133.439 18.284V20.264C133.439 21.248 133.278 21.95 132.954 22.37C132.642 22.778 132.162 22.982 131.514 22.982C130.842 22.982 130.35 22.796 130.038 22.424C129.726 22.04 129.57 21.368 129.57 20.408L129.534 12.74C129.534 11.996 129.714 11.45 130.074 11.102C130.434 10.754 130.914 10.58 131.514 10.58C132.15 10.58 132.63 10.712 132.954 10.976C133.278 11.24 133.439 11.774 133.439 12.578V15.188C134.328 14.648 135.408 14.378 136.68 14.378C137.256 14.378 137.718 14.528 138.066 14.828C138.414 15.116 138.672 15.578 138.84 16.214C139.008 16.85 139.092 17.684 139.092 18.716C139.092 19.244 139.08 19.7 139.056 20.084C139.044 20.468 139.02 20.822 138.984 21.146C138.948 21.458 138.894 21.716 138.822 21.92C138.75 22.124 138.666 22.298 138.57 22.442C138.474 22.586 138.348 22.7 138.191 22.784C138.048 22.856 137.886 22.91 137.706 22.946C137.526 22.982 137.31 23 137.058 23C136.386 23 135.9 22.88 135.6 22.64C135.312 22.388 135.168 22.01 135.168 21.506L135.15 18.176ZM146.562 18.734C146.562 18.11 146.484 17.564 146.328 17.096C146.172 16.616 145.944 16.376 145.644 16.376C145.44 16.376 145.26 16.496 145.104 16.736C144.948 16.976 144.834 17.27 144.762 17.618C144.69 17.966 144.654 18.338 144.654 18.734C144.654 19.346 144.738 19.886 144.906 20.354C145.074 20.81 145.314 21.038 145.626 21.038C145.938 21.038 146.172 20.81 146.328 20.354C146.484 19.898 146.562 19.358 146.562 18.734ZM145.626 23.126C144.69 23.126 143.844 22.958 143.088 22.622C142.344 22.286 141.744 21.782 141.288 21.11C140.844 20.438 140.622 19.652 140.622 18.752C140.622 17.384 141.09 16.298 142.026 15.494C142.962 14.69 144.162 14.288 145.626 14.288C147.09 14.288 148.284 14.69 149.208 15.494C150.132 16.298 150.594 17.384 150.594 18.752C150.594 20.108 150.12 21.176 149.172 21.956C148.236 22.736 147.054 23.126 145.626 23.126ZM157.917 18.734C157.917 18.11 157.839 17.564 157.683 17.096C157.527 16.616 157.299 16.376 156.999 16.376C156.795 16.376 156.615 16.496 156.459 16.736C156.303 16.976 156.189 17.27 156.117 17.618C156.045 17.966 156.009 18.338 156.009 18.734C156.009 19.346 156.093 19.886 156.261 20.354C156.429 20.81 156.669 21.038 156.981 21.038C157.293 21.038 157.527 20.81 157.683 20.354C157.839 19.898 157.917 19.358 157.917 18.734ZM156.981 23.126C156.045 23.126 155.199 22.958 154.443 22.622C153.699 22.286 153.099 21.782 152.643 21.11C152.199 20.438 151.977 19.652 151.977 18.752C151.977 17.384 152.445 16.298 153.381 15.494C154.317 14.69 155.517 14.288 156.981 14.288C158.445 14.288 159.639 14.69 160.563 15.494C161.487 16.298 161.949 17.384 161.949 18.752C161.949 20.108 161.475 21.176 160.527 21.956C159.591 22.736 158.409 23.126 156.981 23.126ZM167.419 20.282C167.419 21.254 167.257 21.95 166.933 22.37C166.609 22.79 166.111 23 165.439 23C164.767 23 164.275 22.814 163.963 22.442C163.651 22.058 163.495 21.386 163.495 20.426L163.459 12.83C163.459 12.518 163.489 12.242 163.549 12.002C163.621 11.762 163.711 11.558 163.819 11.39C163.939 11.222 164.083 11.084 164.251 10.976C164.419 10.868 164.599 10.79 164.791 10.742C164.995 10.694 165.211 10.67 165.439 10.67C166.099 10.67 166.591 10.802 166.915 11.066C167.251 11.33 167.419 11.864 167.419 12.668V20.282Z" fill="white"/>
<path d="M8.928 11.8712C11.0968 11.8712 12.8608 9.21359 12.8608 5.94679C12.8608 2.68079 11.0968 0.0231934 8.928 0.0231934C6.7592 0.0231934 4.9948 2.68079 4.9948 5.94679C4.9948 9.21359 6.7596 11.8712 8.928 11.8712Z" fill="white"/>
<path d="M27.6424 11.8712C29.8112 11.8712 31.5756 9.21359 31.5756 5.94679C31.5756 2.68079 29.8112 0.0231934 27.6424 0.0231934C25.474 0.0231934 23.71 2.68079 23.71 5.94679C23.71 9.21359 25.4744 11.8712 27.6424 11.8712Z" fill="white"/>
<path d="M35.7178 16.6119C35.4686 16.3987 35.1252 16.3743 34.8617 16.5558C30.6311 19.4465 24.8916 21.457 18.6998 22.2173C12.5094 22.9773 6.4537 22.4151 1.6491 20.6342C1.34929 20.5231 1.02107 20.6287 0.832339 20.8957C0.642562 21.1632 0.633221 21.5351 0.808865 21.8215C3.41478 26.076 11.0299 28.3352 19.3263 27.3165C27.6259 26.2974 34.4685 22.2619 35.9656 17.5039C36.0661 17.1841 35.9662 16.8252 35.7178 16.6119Z" fill="white"/>
</svg>
